<svg width="2304" height="66" viewBox="0 0 2304 66" fill="none" xmlns="http://www.w3.org/2000/svg">
<g clip-path="url(#clip0_979_3165)">
<mask id="mask0_979_3165" style="mask-type:alpha" maskUnits="userSpaceOnUse" x="-30" y="-231" width="528" height="309">
<path d="M100.825 -231H82.7728L54.9413 -179.596H72.9931L100.825 -231Z" fill="#FEC526"/>
<path d="M136.934 -231H118.879L91.0479 -179.596H109.1L136.934 -231Z" fill="#FEC526"/>
<path d="M91.0479 -179.596H72.9931L45.1616 -128.192H27.1099L-0.721605 -76.788H17.3302L45.1616 -128.192H63.2164L91.0479 -179.596Z" fill="#FEC526"/>
<path d="M173.038 -231H154.986L127.154 -179.596H145.206L173.038 -231Z" fill="#FEC526"/>
<path d="M127.154 -179.596H109.1L81.2682 -128.192H63.2164L35.385 -76.788H53.4368L81.2713 -128.192H99.323L127.154 -179.596Z" fill="#FEC526"/>
<path d="M209.147 -231H191.093L163.261 -179.596H181.313L209.147 -231Z" fill="#FEC526"/>
<path d="M245.254 -231H227.199L199.368 -179.596H217.422L245.254 -231Z" fill="#FEC526"/>
<path d="M153.481 -128.192H135.43L107.598 -76.788H89.601L61.7695 -25.3874H79.8243L107.656 -76.788H125.65L153.484 -128.192H171.536L199.368 -179.596H181.313L153.481 -128.192Z" fill="#FEC526"/>
<path d="M281.357 -231H263.306L235.474 -179.596H253.526L281.357 -231Z" fill="#FEC526"/>
<path d="M189.588 -128.192H171.536L143.705 -76.788H125.708L97.8761 -25.3874H115.928L143.762 -76.788H161.76L189.591 -128.192H207.643L235.474 -179.596H217.422L189.588 -128.192Z" fill="#FEC526"/>
<path d="M225.695 -128.192H243.749L215.918 -76.788H197.921L170.089 -25.3874H188.144L215.976 -76.788H233.97L261.801 -128.192H279.856L307.687 -179.596H289.633L261.801 -128.192H243.749L271.581 -179.596H289.633L317.464 -231H299.412L271.581 -179.596H253.526L225.695 -128.192Z" fill="#FEC526"/>
<path d="M353.574 -231H335.519L307.687 -179.596H325.739L353.574 -231Z" fill="#FEC526"/>
<path d="M389.68 -231H371.625L343.794 -179.596H361.846L389.68 -231Z" fill="#FEC526"/>
<path d="M297.908 -128.192H279.856L252.024 -76.788H234.027L206.196 -25.3874H224.251L252.082 -76.788H270.076L297.911 -128.192H315.963L343.794 -179.596H325.739L297.908 -128.192Z" fill="#FEC526"/>
<path d="M425.787 -231H407.732L379.901 -179.596H397.952L425.787 -231Z" fill="#FEC526"/>
<path d="M461.893 -231H443.839L416.007 -179.596H434.062L461.893 -231Z" fill="#FEC526"/>
<path d="M370.121 -128.192H352.069L324.238 -76.788H306.24L278.409 -25.3874H296.461L324.295 -76.788H342.292L370.124 -128.192H388.176L416.007 -179.596H397.952L370.121 -128.192Z" fill="#FEC526"/>
<path d="M498 -231H479.945L452.114 -179.596H470.169L498 -231Z" fill="#FEC526"/>
<path d="M396.451 -76.788H378.454L350.625 -25.3874H368.677L396.508 -76.788H414.506L442.337 -128.192H424.282L396.451 -76.788Z" fill="#FEC526"/>
<path d="M406.227 -128.192H388.176L360.344 -76.788H342.347L314.516 -25.3874H332.57L360.402 -76.788H378.399L406.23 -128.192H424.282L452.114 -179.596H434.062L406.227 -128.192Z" fill="#FEC526"/>
<path d="M442.337 -128.192H460.389L488.22 -179.596H470.169L442.337 -128.192Z" fill="#FEC526"/>
<path d="M71.5462 -76.788H89.5433L117.378 -128.192H135.43L163.261 -179.596H145.206L117.375 -128.192H99.323L71.4916 -76.788H53.4944L25.6629 -25.3874H43.7177L71.5462 -76.788Z" fill="#FEC526"/>
<path d="M61.7695 -25.3874H43.7177L15.8832 26.0166H-2.16854L-30 77.4206H-11.9452L15.8863 26.0166H33.938L61.7695 -25.3874Z" fill="#FEC526"/>
<path d="M97.8761 -25.3874H79.8243L51.9929 26.0166H33.938L6.10658 77.4206H24.1584L51.9929 26.0166H70.0446L97.8761 -25.3874Z" fill="#FEC526"/>
<path d="M179.869 -76.788H197.866L225.695 -128.192H207.643L179.811 -76.788H161.814L133.983 -25.3874H152.037L179.869 -76.788Z" fill="#FEC526"/>
<path d="M88.0964 26.0166H70.0446L42.2132 77.4206H60.2649L88.0994 26.0166H106.151L133.983 -25.3874H115.928L88.0964 26.0166Z" fill="#FEC526"/>
<path d="M170.089 -25.3874H152.037L124.206 26.0166H106.151L78.3197 77.4206H96.3746L124.206 26.0166H142.258L170.089 -25.3874Z" fill="#FEC526"/>
<path d="M150.536 77.4206H168.588L196.419 26.0166H178.367L150.536 77.4206Z" fill="#FEC526"/>
<path d="M206.196 -25.3874H188.144L160.31 26.0166H142.258L114.426 77.4206H132.481L160.313 26.0166H178.367L206.196 -25.3874Z" fill="#FEC526"/>
<path d="M278.409 -25.3874H260.357L232.523 26.0166H214.471L242.302 -25.3874H260.357L288.189 -76.788H306.183L334.017 -128.192H352.069L379.901 -179.596H361.846L334.014 -128.192H315.963L288.131 -76.788H270.134L242.302 -25.3874H224.251L196.419 26.0166H214.471L186.639 77.4206H204.694L232.526 26.0166H250.578L278.409 -25.3874Z" fill="#FEC526"/>
<path d="M314.516 -25.3874H296.461L268.632 26.0166H250.578L222.746 77.4206H240.801L268.632 26.0166H286.684L314.516 -25.3874Z" fill="#FEC526"/>
<path d="M304.739 26.0166H286.684L258.853 77.4206H276.904L304.739 26.0166H322.791L350.625 -25.3874H332.57L304.739 26.0166Z" fill="#FEC526"/>
<path d="M432.615 -76.788H414.56L386.729 -25.3874H404.784L432.615 -76.788Z" fill="#FEC526"/>
<path d="M340.846 26.0166H322.794L294.962 77.4206H313.014L340.846 26.0166H358.897L386.729 -25.3874H368.677L340.846 26.0166Z" fill="#FEC526"/>
<path d="M468.722 -76.788H450.67L422.838 -25.3874H440.89L468.722 -76.788Z" fill="#FEC526"/>
<path d="M367.175 77.4206H385.227L413.059 26.0166H395.007L367.175 77.4206Z" fill="#FEC526"/>
<path d="M376.952 26.0166H358.897L331.066 77.4206H349.121L376.952 26.0166H395.007L422.838 -25.3874H404.784L376.952 26.0166Z" fill="#FEC526"/>
<path d="M413.059 26.0166H431.113L458.945 -25.3874H440.89L413.059 26.0166Z" fill="#FEC526"/>
</mask>
<g mask="url(#mask0_979_3165)">
<rect x="33" width="357" height="66" fill="#04003D"/>
<rect width="390" height="66" fill="#04003D"/>
</g>
</g>
<g clip-path="url(#clip1_979_3165)">
<mask id="mask1_979_3165" style="mask-type:alpha" maskUnits="userSpaceOnUse" x="331" y="-231" width="528" height="309">
<path d="M461.825 -231H443.773L415.941 -179.596H433.993L461.825 -231Z" fill="#FEC526"/>
<path d="M497.934 -231H479.879L452.048 -179.596H470.1L497.934 -231Z" fill="#FEC526"/>
<path d="M452.048 -179.596H433.993L406.162 -128.192H388.11L360.278 -76.788H378.33L406.162 -128.192H424.216L452.048 -179.596Z" fill="#FEC526"/>
<path d="M534.038 -231H515.986L488.154 -179.596H506.206L534.038 -231Z" fill="#FEC526"/>
<path d="M488.154 -179.596H470.1L442.268 -128.192H424.216L396.385 -76.788H414.437L442.271 -128.192H460.323L488.154 -179.596Z" fill="#FEC526"/>
<path d="M570.147 -231H552.093L524.261 -179.596H542.313L570.147 -231Z" fill="#FEC526"/>
<path d="M606.254 -231H588.199L560.368 -179.596H578.422L606.254 -231Z" fill="#FEC526"/>
<path d="M514.481 -128.192H496.43L468.598 -76.788H450.601L422.77 -25.3874H440.824L468.656 -76.788H486.65L514.484 -128.192H532.536L560.368 -179.596H542.313L514.481 -128.192Z" fill="#FEC526"/>
<path d="M642.357 -231H624.306L596.474 -179.596H614.526L642.357 -231Z" fill="#FEC526"/>
<path d="M550.588 -128.192H532.536L504.705 -76.788H486.708L458.876 -25.3874H476.928L504.762 -76.788H522.76L550.591 -128.192H568.643L596.474 -179.596H578.422L550.588 -128.192Z" fill="#FEC526"/>
<path d="M586.695 -128.192H604.749L576.918 -76.788H558.921L531.089 -25.3874H549.144L576.976 -76.788H594.97L622.801 -128.192H640.856L668.687 -179.596H650.633L622.801 -128.192H604.749L632.581 -179.596H650.633L678.464 -231H660.412L632.581 -179.596H614.526L586.695 -128.192Z" fill="#FEC526"/>
<path d="M714.574 -231H696.519L668.687 -179.596H686.739L714.574 -231Z" fill="#FEC526"/>
<path d="M750.68 -231H732.625L704.794 -179.596H722.846L750.68 -231Z" fill="#FEC526"/>
<path d="M658.908 -128.192H640.856L613.024 -76.788H595.027L567.196 -25.3874H585.251L613.082 -76.788H631.076L658.911 -128.192H676.963L704.794 -179.596H686.739L658.908 -128.192Z" fill="#FEC526"/>
<path d="M786.787 -231H768.732L740.901 -179.596H758.952L786.787 -231Z" fill="#FEC526"/>
<path d="M822.893 -231H804.839L777.007 -179.596H795.062L822.893 -231Z" fill="#FEC526"/>
<path d="M731.121 -128.192H713.069L685.238 -76.788H667.24L639.409 -25.3874H657.461L685.295 -76.788H703.292L731.124 -128.192H749.176L777.007 -179.596H758.952L731.121 -128.192Z" fill="#FEC526"/>
<path d="M859 -231H840.945L813.114 -179.596H831.169L859 -231Z" fill="#FEC526"/>
<path d="M757.451 -76.788H739.454L711.625 -25.3874H729.677L757.508 -76.788H775.506L803.337 -128.192H785.282L757.451 -76.788Z" fill="#FEC526"/>
<path d="M767.227 -128.192H749.176L721.344 -76.788H703.347L675.516 -25.3874H693.57L721.402 -76.788H739.399L767.23 -128.192H785.282L813.114 -179.596H795.062L767.227 -128.192Z" fill="#FEC526"/>
<path d="M803.337 -128.192H821.389L849.22 -179.596H831.169L803.337 -128.192Z" fill="#FEC526"/>
<path d="M432.546 -76.788H450.543L478.378 -128.192H496.43L524.261 -179.596H506.206L478.375 -128.192H460.323L432.492 -76.788H414.494L386.663 -25.3874H404.718L432.546 -76.788Z" fill="#FEC526"/>
<path d="M422.77 -25.3874H404.718L376.883 26.0166H358.831L331 77.4206H349.055L376.886 26.0166H394.938L422.77 -25.3874Z" fill="#FEC526"/>
<path d="M458.876 -25.3874H440.824L412.993 26.0166H394.938L367.107 77.4206H385.158L412.993 26.0166H431.045L458.876 -25.3874Z" fill="#FEC526"/>
<path d="M540.869 -76.788H558.866L586.695 -128.192H568.643L540.811 -76.788H522.814L494.983 -25.3874H513.037L540.869 -76.788Z" fill="#FEC526"/>
<path d="M449.096 26.0166H431.045L403.213 77.4206H421.265L449.099 26.0166H467.151L494.983 -25.3874H476.928L449.096 26.0166Z" fill="#FEC526"/>
<path d="M531.089 -25.3874H513.037L485.206 26.0166H467.151L439.32 77.4206H457.375L485.206 26.0166H503.258L531.089 -25.3874Z" fill="#FEC526"/>
<path d="M511.536 77.4206H529.588L557.419 26.0166H539.367L511.536 77.4206Z" fill="#FEC526"/>
<path d="M567.196 -25.3874H549.144L521.31 26.0166H503.258L475.426 77.4206H493.481L521.313 26.0166H539.367L567.196 -25.3874Z" fill="#FEC526"/>
<path d="M639.409 -25.3874H621.357L593.523 26.0166H575.471L603.302 -25.3874H621.357L649.189 -76.788H667.183L695.017 -128.192H713.069L740.901 -179.596H722.846L695.014 -128.192H676.963L649.131 -76.788H631.134L603.302 -25.3874H585.251L557.419 26.0166H575.471L547.639 77.4206H565.694L593.526 26.0166H611.578L639.409 -25.3874Z" fill="#FEC526"/>
<path d="M675.516 -25.3874H657.461L629.632 26.0166H611.578L583.746 77.4206H601.801L629.632 26.0166H647.684L675.516 -25.3874Z" fill="#FEC526"/>
<path d="M665.739 26.0166H647.684L619.853 77.4206H637.904L665.739 26.0166H683.791L711.625 -25.3874H693.57L665.739 26.0166Z" fill="#FEC526"/>
<path d="M793.615 -76.788H775.56L747.729 -25.3874H765.784L793.615 -76.788Z" fill="#FEC526"/>
<path d="M701.846 26.0166H683.794L655.962 77.4206H674.014L701.846 26.0166H719.897L747.729 -25.3874H729.677L701.846 26.0166Z" fill="#FEC526"/>
<path d="M829.722 -76.788H811.67L783.838 -25.3874H801.89L829.722 -76.788Z" fill="#FEC526"/>
<path d="M728.175 77.4206H746.227L774.059 26.0166H756.007L728.175 77.4206Z" fill="#FEC526"/>
<path d="M737.952 26.0166H719.897L692.066 77.4206H710.121L737.952 26.0166H756.007L783.838 -25.3874H765.784L737.952 26.0166Z" fill="#FEC526"/>
<path d="M774.059 26.0166H792.113L819.945 -25.3874H801.89L774.059 26.0166Z" fill="#FEC526"/>
</mask>
<g mask="url(#mask1_979_3165)">
<rect x="359" width="357" height="66" fill="#04003D"/>
</g>
</g>
<g clip-path="url(#clip2_979_3165)">
<mask id="mask2_979_3165" style="mask-type:alpha" maskUnits="userSpaceOnUse" x="656" y="-231" width="528" height="309">
<path d="M786.825 -231H768.773L740.941 -179.596H758.993L786.825 -231Z" fill="#FEC526"/>
<path d="M822.934 -231H804.879L777.048 -179.596H795.1L822.934 -231Z" fill="#FEC526"/>
<path d="M777.048 -179.596H758.993L731.162 -128.192H713.11L685.278 -76.788H703.33L731.162 -128.192H749.216L777.048 -179.596Z" fill="#FEC526"/>
<path d="M859.038 -231H840.986L813.154 -179.596H831.206L859.038 -231Z" fill="#FEC526"/>
<path d="M813.154 -179.596H795.1L767.268 -128.192H749.216L721.385 -76.788H739.437L767.271 -128.192H785.323L813.154 -179.596Z" fill="#FEC526"/>
<path d="M895.147 -231H877.093L849.261 -179.596H867.313L895.147 -231Z" fill="#FEC526"/>
<path d="M931.254 -231H913.199L885.368 -179.596H903.422L931.254 -231Z" fill="#FEC526"/>
<path d="M839.481 -128.192H821.43L793.598 -76.788H775.601L747.77 -25.3874H765.824L793.656 -76.788H811.65L839.484 -128.192H857.536L885.368 -179.596H867.313L839.481 -128.192Z" fill="#FEC526"/>
<path d="M967.357 -231H949.306L921.474 -179.596H939.526L967.357 -231Z" fill="#FEC526"/>
<path d="M875.588 -128.192H857.536L829.705 -76.788H811.708L783.876 -25.3874H801.928L829.762 -76.788H847.76L875.591 -128.192H893.643L921.474 -179.596H903.422L875.588 -128.192Z" fill="#FEC526"/>
<path d="M911.695 -128.192H929.749L901.918 -76.788H883.921L856.089 -25.3874H874.144L901.976 -76.788H919.97L947.801 -128.192H965.856L993.687 -179.596H975.633L947.801 -128.192H929.749L957.581 -179.596H975.633L1003.46 -231H985.412L957.581 -179.596H939.526L911.695 -128.192Z" fill="#FEC526"/>
<path d="M1039.57 -231H1021.52L993.687 -179.596H1011.74L1039.57 -231Z" fill="#FEC526"/>
<path d="M1075.68 -231H1057.63L1029.79 -179.596H1047.85L1075.68 -231Z" fill="#FEC526"/>
<path d="M983.908 -128.192H965.856L938.024 -76.788H920.027L892.196 -25.3874H910.251L938.082 -76.788H956.076L983.911 -128.192H1001.96L1029.79 -179.596H1011.74L983.908 -128.192Z" fill="#FEC526"/>
<path d="M1111.79 -231H1093.73L1065.9 -179.596H1083.95L1111.79 -231Z" fill="#FEC526"/>
<path d="M1147.89 -231H1129.84L1102.01 -179.596H1120.06L1147.89 -231Z" fill="#FEC526"/>
<path d="M1056.12 -128.192H1038.07L1010.24 -76.788H992.24L964.409 -25.3874H982.461L1010.3 -76.788H1028.29L1056.12 -128.192H1074.18L1102.01 -179.596H1083.95L1056.12 -128.192Z" fill="#FEC526"/>
<path d="M1184 -231H1165.95L1138.11 -179.596H1156.17L1184 -231Z" fill="#FEC526"/>
<path d="M1082.45 -76.788H1064.45L1036.63 -25.3874H1054.68L1082.51 -76.788H1100.51L1128.34 -128.192H1110.28L1082.45 -76.788Z" fill="#FEC526"/>
<path d="M1092.23 -128.192H1074.18L1046.34 -76.788H1028.35L1000.52 -25.3874H1018.57L1046.4 -76.788H1064.4L1092.23 -128.192H1110.28L1138.11 -179.596H1120.06L1092.23 -128.192Z" fill="#FEC526"/>
<path d="M1128.34 -128.192H1146.39L1174.22 -179.596H1156.17L1128.34 -128.192Z" fill="#FEC526"/>
<path d="M757.546 -76.788H775.543L803.378 -128.192H821.43L849.261 -179.596H831.206L803.375 -128.192H785.323L757.492 -76.788H739.494L711.663 -25.3874H729.718L757.546 -76.788Z" fill="#FEC526"/>
<path d="M747.77 -25.3874H729.718L701.883 26.0166H683.831L656 77.4206H674.055L701.886 26.0166H719.938L747.77 -25.3874Z" fill="#FEC526"/>
<path d="M783.876 -25.3874H765.824L737.993 26.0166H719.938L692.107 77.4206H710.158L737.993 26.0166H756.045L783.876 -25.3874Z" fill="#FEC526"/>
<path d="M865.869 -76.788H883.866L911.695 -128.192H893.643L865.811 -76.788H847.814L819.983 -25.3874H838.037L865.869 -76.788Z" fill="#FEC526"/>
<path d="M774.096 26.0166H756.045L728.213 77.4206H746.265L774.099 26.0166H792.151L819.983 -25.3874H801.928L774.096 26.0166Z" fill="#FEC526"/>
<path d="M856.089 -25.3874H838.037L810.206 26.0166H792.151L764.32 77.4206H782.375L810.206 26.0166H828.258L856.089 -25.3874Z" fill="#FEC526"/>
<path d="M836.536 77.4206H854.588L882.419 26.0166H864.367L836.536 77.4206Z" fill="#FEC526"/>
<path d="M892.196 -25.3874H874.144L846.31 26.0166H828.258L800.426 77.4206H818.481L846.313 26.0166H864.367L892.196 -25.3874Z" fill="#FEC526"/>
<path d="M964.409 -25.3874H946.357L918.523 26.0166H900.471L928.302 -25.3874H946.357L974.189 -76.788H992.183L1020.02 -128.192H1038.07L1065.9 -179.596H1047.85L1020.01 -128.192H1001.96L974.131 -76.788H956.134L928.302 -25.3874H910.251L882.419 26.0166H900.471L872.639 77.4206H890.694L918.526 26.0166H936.578L964.409 -25.3874Z" fill="#FEC526"/>
<path d="M1000.52 -25.3874H982.461L954.632 26.0166H936.578L908.746 77.4206H926.801L954.632 26.0166H972.684L1000.52 -25.3874Z" fill="#FEC526"/>
<path d="M990.739 26.0166H972.684L944.853 77.4206H962.904L990.739 26.0166H1008.79L1036.63 -25.3874H1018.57L990.739 26.0166Z" fill="#FEC526"/>
<path d="M1118.62 -76.788H1100.56L1072.73 -25.3874H1090.78L1118.62 -76.788Z" fill="#FEC526"/>
<path d="M1026.85 26.0166H1008.79L980.962 77.4206H999.014L1026.85 26.0166H1044.9L1072.73 -25.3874H1054.68L1026.85 26.0166Z" fill="#FEC526"/>
<path d="M1154.72 -76.788H1136.67L1108.84 -25.3874H1126.89L1154.72 -76.788Z" fill="#FEC526"/>
<path d="M1053.18 77.4206H1071.23L1099.06 26.0166H1081.01L1053.18 77.4206Z" fill="#FEC526"/>
<path d="M1062.95 26.0166H1044.9L1017.07 77.4206H1035.12L1062.95 26.0166H1081.01L1108.84 -25.3874H1090.78L1062.95 26.0166Z" fill="#FEC526"/>
<path d="M1099.06 26.0166H1117.11L1144.94 -25.3874H1126.89L1099.06 26.0166Z" fill="#FEC526"/>
</mask>
<g mask="url(#mask2_979_3165)">
<rect x="719" width="357" height="66" fill="#04003D"/>
<rect x="686" width="390" height="66" fill="#04003D"/>
</g>
</g>
<g clip-path="url(#clip3_979_3165)">
<mask id="mask3_979_3165" style="mask-type:alpha" maskUnits="userSpaceOnUse" x="1017" y="-231" width="528" height="309">
<path d="M1147.82 -231H1129.77L1101.94 -179.596H1119.99L1147.82 -231Z" fill="#FEC526"/>
<path d="M1183.93 -231H1165.88L1138.05 -179.596H1156.1L1183.93 -231Z" fill="#FEC526"/>
<path d="M1138.05 -179.596H1119.99L1092.16 -128.192H1074.11L1046.28 -76.788H1064.33L1092.16 -128.192H1110.22L1138.05 -179.596Z" fill="#FEC526"/>
<path d="M1220.04 -231H1201.99L1174.15 -179.596H1192.21L1220.04 -231Z" fill="#FEC526"/>
<path d="M1174.15 -179.596H1156.1L1128.27 -128.192H1110.22L1082.38 -76.788H1100.44L1128.27 -128.192H1146.32L1174.15 -179.596Z" fill="#FEC526"/>
<path d="M1256.15 -231H1238.09L1210.26 -179.596H1228.31L1256.15 -231Z" fill="#FEC526"/>
<path d="M1292.25 -231H1274.2L1246.37 -179.596H1264.42L1292.25 -231Z" fill="#FEC526"/>
<path d="M1200.48 -128.192H1182.43L1154.6 -76.788H1136.6L1108.77 -25.3874H1126.82L1154.66 -76.788H1172.65L1200.48 -128.192H1218.54L1246.37 -179.596H1228.31L1200.48 -128.192Z" fill="#FEC526"/>
<path d="M1328.36 -231H1310.31L1282.47 -179.596H1300.53L1328.36 -231Z" fill="#FEC526"/>
<path d="M1236.59 -128.192H1218.54L1190.7 -76.788H1172.71L1144.88 -25.3874H1162.93L1190.76 -76.788H1208.76L1236.59 -128.192H1254.64L1282.47 -179.596H1264.42L1236.59 -128.192Z" fill="#FEC526"/>
<path d="M1272.69 -128.192H1290.75L1262.92 -76.788H1244.92L1217.09 -25.3874H1235.14L1262.98 -76.788H1280.97L1308.8 -128.192H1326.86L1354.69 -179.596H1336.63L1308.8 -128.192H1290.75L1318.58 -179.596H1336.63L1364.46 -231H1346.41L1318.58 -179.596H1300.53L1272.69 -128.192Z" fill="#FEC526"/>
<path d="M1400.57 -231H1382.52L1354.69 -179.596H1372.74L1400.57 -231Z" fill="#FEC526"/>
<path d="M1436.68 -231H1418.63L1390.79 -179.596H1408.85L1436.68 -231Z" fill="#FEC526"/>
<path d="M1344.91 -128.192H1326.86L1299.02 -76.788H1281.03L1253.2 -25.3874H1271.25L1299.08 -76.788H1317.08L1344.91 -128.192H1362.96L1390.79 -179.596H1372.74L1344.91 -128.192Z" fill="#FEC526"/>
<path d="M1472.79 -231H1454.73L1426.9 -179.596H1444.95L1472.79 -231Z" fill="#FEC526"/>
<path d="M1508.89 -231H1490.84L1463.01 -179.596H1481.06L1508.89 -231Z" fill="#FEC526"/>
<path d="M1417.12 -128.192H1399.07L1371.24 -76.788H1353.24L1325.41 -25.3874H1343.46L1371.3 -76.788H1389.29L1417.12 -128.192H1435.18L1463.01 -179.596H1444.95L1417.12 -128.192Z" fill="#FEC526"/>
<path d="M1545 -231H1526.95L1499.11 -179.596H1517.17L1545 -231Z" fill="#FEC526"/>
<path d="M1443.45 -76.788H1425.45L1397.63 -25.3874H1415.68L1443.51 -76.788H1461.51L1489.34 -128.192H1471.28L1443.45 -76.788Z" fill="#FEC526"/>
<path d="M1453.23 -128.192H1435.18L1407.34 -76.788H1389.35L1361.52 -25.3874H1379.57L1407.4 -76.788H1425.4L1453.23 -128.192H1471.28L1499.11 -179.596H1481.06L1453.23 -128.192Z" fill="#FEC526"/>
<path d="M1489.34 -128.192H1507.39L1535.22 -179.596H1517.17L1489.34 -128.192Z" fill="#FEC526"/>
<path d="M1118.55 -76.788H1136.54L1164.38 -128.192H1182.43L1210.26 -179.596H1192.21L1164.37 -128.192H1146.32L1118.49 -76.788H1100.49L1072.66 -25.3874H1090.72L1118.55 -76.788Z" fill="#FEC526"/>
<path d="M1108.77 -25.3874H1090.72L1062.88 26.0166H1044.83L1017 77.4206H1035.05L1062.89 26.0166H1080.94L1108.77 -25.3874Z" fill="#FEC526"/>
<path d="M1144.88 -25.3874H1126.82L1098.99 26.0166H1080.94L1053.11 77.4206H1071.16L1098.99 26.0166H1117.04L1144.88 -25.3874Z" fill="#FEC526"/>
<path d="M1226.87 -76.788H1244.87L1272.69 -128.192H1254.64L1226.81 -76.788H1208.81L1180.98 -25.3874H1199.04L1226.87 -76.788Z" fill="#FEC526"/>
<path d="M1135.1 26.0166H1117.04L1089.21 77.4206H1107.26L1135.1 26.0166H1153.15L1180.98 -25.3874H1162.93L1135.1 26.0166Z" fill="#FEC526"/>
<path d="M1217.09 -25.3874H1199.04L1171.21 26.0166H1153.15L1125.32 77.4206H1143.37L1171.21 26.0166H1189.26L1217.09 -25.3874Z" fill="#FEC526"/>
<path d="M1197.54 77.4206H1215.59L1243.42 26.0166H1225.37L1197.54 77.4206Z" fill="#FEC526"/>
<path d="M1253.2 -25.3874H1235.14L1207.31 26.0166H1189.26L1161.43 77.4206H1179.48L1207.31 26.0166H1225.37L1253.2 -25.3874Z" fill="#FEC526"/>
<path d="M1325.41 -25.3874H1307.36L1279.52 26.0166H1261.47L1289.3 -25.3874H1307.36L1335.19 -76.788H1353.18L1381.02 -128.192H1399.07L1426.9 -179.596H1408.85L1381.01 -128.192H1362.96L1335.13 -76.788H1317.13L1289.3 -25.3874H1271.25L1243.42 26.0166H1261.47L1233.64 77.4206H1251.69L1279.53 26.0166H1297.58L1325.41 -25.3874Z" fill="#FEC526"/>
<path d="M1361.52 -25.3874H1343.46L1315.63 26.0166H1297.58L1269.75 77.4206H1287.8L1315.63 26.0166H1333.68L1361.52 -25.3874Z" fill="#FEC526"/>
<path d="M1351.74 26.0166H1333.68L1305.85 77.4206H1323.9L1351.74 26.0166H1369.79L1397.63 -25.3874H1379.57L1351.74 26.0166Z" fill="#FEC526"/>
<path d="M1479.62 -76.788H1461.56L1433.73 -25.3874H1451.78L1479.62 -76.788Z" fill="#FEC526"/>
<path d="M1387.85 26.0166H1369.79L1341.96 77.4206H1360.01L1387.85 26.0166H1405.9L1433.73 -25.3874H1415.68L1387.85 26.0166Z" fill="#FEC526"/>
<path d="M1515.72 -76.788H1497.67L1469.84 -25.3874H1487.89L1515.72 -76.788Z" fill="#FEC526"/>
<path d="M1414.18 77.4206H1432.23L1460.06 26.0166H1442.01L1414.18 77.4206Z" fill="#FEC526"/>
<path d="M1423.95 26.0166H1405.9L1378.07 77.4206H1396.12L1423.95 26.0166H1442.01L1469.84 -25.3874H1451.78L1423.95 26.0166Z" fill="#FEC526"/>
<path d="M1460.06 26.0166H1478.11L1505.94 -25.3874H1487.89L1460.06 26.0166Z" fill="#FEC526"/>
</mask>
<g mask="url(#mask3_979_3165)">
<rect x="1045" width="357" height="66" fill="#04003D"/>
</g>
</g>
<g clip-path="url(#clip4_979_3165)">
<mask id="mask4_979_3165" style="mask-type:alpha" maskUnits="userSpaceOnUse" x="872" y="-231" width="528" height="309">
<path d="M1002.82 -231H984.773L956.941 -179.596H974.993L1002.82 -231Z" fill="#FEC526"/>
<path d="M1038.93 -231H1020.88L993.048 -179.596H1011.1L1038.93 -231Z" fill="#FEC526"/>
<path d="M993.048 -179.596H974.993L947.162 -128.192H929.11L901.278 -76.788H919.33L947.162 -128.192H965.216L993.048 -179.596Z" fill="#FEC526"/>
<path d="M1075.04 -231H1056.99L1029.15 -179.596H1047.21L1075.04 -231Z" fill="#FEC526"/>
<path d="M1029.15 -179.596H1011.1L983.268 -128.192H965.216L937.385 -76.788H955.437L983.271 -128.192H1001.32L1029.15 -179.596Z" fill="#FEC526"/>
<path d="M1111.15 -231H1093.09L1065.26 -179.596H1083.31L1111.15 -231Z" fill="#FEC526"/>
<path d="M1147.25 -231H1129.2L1101.37 -179.596H1119.42L1147.25 -231Z" fill="#FEC526"/>
<path d="M1055.48 -128.192H1037.43L1009.6 -76.788H991.601L963.77 -25.3874H981.824L1009.66 -76.788H1027.65L1055.48 -128.192H1073.54L1101.37 -179.596H1083.31L1055.48 -128.192Z" fill="#FEC526"/>
<path d="M1183.36 -231H1165.31L1137.47 -179.596H1155.53L1183.36 -231Z" fill="#FEC526"/>
<path d="M1091.59 -128.192H1073.54L1045.7 -76.788H1027.71L999.876 -25.3874H1017.93L1045.76 -76.788H1063.76L1091.59 -128.192H1109.64L1137.47 -179.596H1119.42L1091.59 -128.192Z" fill="#FEC526"/>
<path d="M1127.69 -128.192H1145.75L1117.92 -76.788H1099.92L1072.09 -25.3874H1090.14L1117.98 -76.788H1135.97L1163.8 -128.192H1181.86L1209.69 -179.596H1191.63L1163.8 -128.192H1145.75L1173.58 -179.596H1191.63L1219.46 -231H1201.41L1173.58 -179.596H1155.53L1127.69 -128.192Z" fill="#FEC526"/>
<path d="M1255.57 -231H1237.52L1209.69 -179.596H1227.74L1255.57 -231Z" fill="#FEC526"/>
<path d="M1291.68 -231H1273.63L1245.79 -179.596H1263.85L1291.68 -231Z" fill="#FEC526"/>
<path d="M1199.91 -128.192H1181.86L1154.02 -76.788H1136.03L1108.2 -25.3874H1126.25L1154.08 -76.788H1172.08L1199.91 -128.192H1217.96L1245.79 -179.596H1227.74L1199.91 -128.192Z" fill="#FEC526"/>
<path d="M1327.79 -231H1309.73L1281.9 -179.596H1299.95L1327.79 -231Z" fill="#FEC526"/>
<path d="M1363.89 -231H1345.84L1318.01 -179.596H1336.06L1363.89 -231Z" fill="#FEC526"/>
<path d="M1272.12 -128.192H1254.07L1226.24 -76.788H1208.24L1180.41 -25.3874H1198.46L1226.3 -76.788H1244.29L1272.12 -128.192H1290.18L1318.01 -179.596H1299.95L1272.12 -128.192Z" fill="#FEC526"/>
<path d="M1400 -231H1381.95L1354.11 -179.596H1372.17L1400 -231Z" fill="#FEC526"/>
<path d="M1298.45 -76.788H1280.45L1252.63 -25.3874H1270.68L1298.51 -76.788H1316.51L1344.34 -128.192H1326.28L1298.45 -76.788Z" fill="#FEC526"/>
<path d="M1308.23 -128.192H1290.18L1262.34 -76.788H1244.35L1216.52 -25.3874H1234.57L1262.4 -76.788H1280.4L1308.23 -128.192H1326.28L1354.11 -179.596H1336.06L1308.23 -128.192Z" fill="#FEC526"/>
<path d="M1344.34 -128.192H1362.39L1390.22 -179.596H1372.17L1344.34 -128.192Z" fill="#FEC526"/>
<path d="M973.546 -76.788H991.543L1019.38 -128.192H1037.43L1065.26 -179.596H1047.21L1019.37 -128.192H1001.32L973.492 -76.788H955.494L927.663 -25.3874H945.718L973.546 -76.788Z" fill="#FEC526"/>
<path d="M963.77 -25.3874H945.718L917.883 26.0166H899.831L872 77.4206H890.055L917.886 26.0166H935.938L963.77 -25.3874Z" fill="#FEC526"/>
<path d="M999.876 -25.3874H981.824L953.993 26.0166H935.938L908.107 77.4206H926.158L953.993 26.0166H972.045L999.876 -25.3874Z" fill="#FEC526"/>
<path d="M1081.87 -76.788H1099.87L1127.69 -128.192H1109.64L1081.81 -76.788H1063.81L1035.98 -25.3874H1054.04L1081.87 -76.788Z" fill="#FEC526"/>
<path d="M990.096 26.0166H972.045L944.213 77.4206H962.265L990.099 26.0166H1008.15L1035.98 -25.3874H1017.93L990.096 26.0166Z" fill="#FEC526"/>
<path d="M1072.09 -25.3874H1054.04L1026.21 26.0166H1008.15L980.32 77.4206H998.375L1026.21 26.0166H1044.26L1072.09 -25.3874Z" fill="#FEC526"/>
<path d="M1052.54 77.4206H1070.59L1098.42 26.0166H1080.37L1052.54 77.4206Z" fill="#FEC526"/>
<path d="M1108.2 -25.3874H1090.14L1062.31 26.0166H1044.26L1016.43 77.4206H1034.48L1062.31 26.0166H1080.37L1108.2 -25.3874Z" fill="#FEC526"/>
<path d="M1180.41 -25.3874H1162.36L1134.52 26.0166H1116.47L1144.3 -25.3874H1162.36L1190.19 -76.788H1208.18L1236.02 -128.192H1254.07L1281.9 -179.596H1263.85L1236.01 -128.192H1217.96L1190.13 -76.788H1172.13L1144.3 -25.3874H1126.25L1098.42 26.0166H1116.47L1088.64 77.4206H1106.69L1134.53 26.0166H1152.58L1180.41 -25.3874Z" fill="#FEC526"/>
<path d="M1216.52 -25.3874H1198.46L1170.63 26.0166H1152.58L1124.75 77.4206H1142.8L1170.63 26.0166H1188.68L1216.52 -25.3874Z" fill="#FEC526"/>
<path d="M1206.74 26.0166H1188.68L1160.85 77.4206H1178.9L1206.74 26.0166H1224.79L1252.63 -25.3874H1234.57L1206.74 26.0166Z" fill="#FEC526"/>
<path d="M1334.62 -76.788H1316.56L1288.73 -25.3874H1306.78L1334.62 -76.788Z" fill="#FEC526"/>
<path d="M1242.85 26.0166H1224.79L1196.96 77.4206H1215.01L1242.85 26.0166H1260.9L1288.73 -25.3874H1270.68L1242.85 26.0166Z" fill="#FEC526"/>
<path d="M1370.72 -76.788H1352.67L1324.84 -25.3874H1342.89L1370.72 -76.788Z" fill="#FEC526"/>
<path d="M1269.18 77.4206H1287.23L1315.06 26.0166H1297.01L1269.18 77.4206Z" fill="#FEC526"/>
<path d="M1278.95 26.0166H1260.9L1233.07 77.4206H1251.12L1278.95 26.0166H1297.01L1324.84 -25.3874H1306.78L1278.95 26.0166Z" fill="#FEC526"/>
<path d="M1315.06 26.0166H1333.11L1360.94 -25.3874H1342.89L1315.06 26.0166Z" fill="#FEC526"/>
</mask>
<g mask="url(#mask4_979_3165)">
<rect x="935" width="357" height="66" fill="#04003D"/>
<rect x="902" width="390" height="66" fill="#04003D"/>
</g>
</g>
<g clip-path="url(#clip5_979_3165)">
<mask id="mask5_979_3165" style="mask-type:alpha" maskUnits="userSpaceOnUse" x="1233" y="-231" width="528" height="309">
<path d="M1363.82 -231H1345.77L1317.94 -179.596H1335.99L1363.82 -231Z" fill="#FEC526"/>
<path d="M1399.93 -231H1381.88L1354.05 -179.596H1372.1L1399.93 -231Z" fill="#FEC526"/>
<path d="M1354.05 -179.596H1335.99L1308.16 -128.192H1290.11L1262.28 -76.788H1280.33L1308.16 -128.192H1326.22L1354.05 -179.596Z" fill="#FEC526"/>
<path d="M1436.04 -231H1417.99L1390.15 -179.596H1408.21L1436.04 -231Z" fill="#FEC526"/>
<path d="M1390.15 -179.596H1372.1L1344.27 -128.192H1326.22L1298.38 -76.788H1316.44L1344.27 -128.192H1362.32L1390.15 -179.596Z" fill="#FEC526"/>
<path d="M1472.15 -231H1454.09L1426.26 -179.596H1444.31L1472.15 -231Z" fill="#FEC526"/>
<path d="M1508.25 -231H1490.2L1462.37 -179.596H1480.42L1508.25 -231Z" fill="#FEC526"/>
<path d="M1416.48 -128.192H1398.43L1370.6 -76.788H1352.6L1324.77 -25.3874H1342.82L1370.66 -76.788H1388.65L1416.48 -128.192H1434.54L1462.37 -179.596H1444.31L1416.48 -128.192Z" fill="#FEC526"/>
<path d="M1544.36 -231H1526.31L1498.47 -179.596H1516.53L1544.36 -231Z" fill="#FEC526"/>
<path d="M1452.59 -128.192H1434.54L1406.7 -76.788H1388.71L1360.88 -25.3874H1378.93L1406.76 -76.788H1424.76L1452.59 -128.192H1470.64L1498.47 -179.596H1480.42L1452.59 -128.192Z" fill="#FEC526"/>
<path d="M1488.69 -128.192H1506.75L1478.92 -76.788H1460.92L1433.09 -25.3874H1451.14L1478.98 -76.788H1496.97L1524.8 -128.192H1542.86L1570.69 -179.596H1552.63L1524.8 -128.192H1506.75L1534.58 -179.596H1552.63L1580.46 -231H1562.41L1534.58 -179.596H1516.53L1488.69 -128.192Z" fill="#FEC526"/>
<path d="M1616.57 -231H1598.52L1570.69 -179.596H1588.74L1616.57 -231Z" fill="#FEC526"/>
<path d="M1652.68 -231H1634.63L1606.79 -179.596H1624.85L1652.68 -231Z" fill="#FEC526"/>
<path d="M1560.91 -128.192H1542.86L1515.02 -76.788H1497.03L1469.2 -25.3874H1487.25L1515.08 -76.788H1533.08L1560.91 -128.192H1578.96L1606.79 -179.596H1588.74L1560.91 -128.192Z" fill="#FEC526"/>
<path d="M1688.79 -231H1670.73L1642.9 -179.596H1660.95L1688.79 -231Z" fill="#FEC526"/>
<path d="M1724.89 -231H1706.84L1679.01 -179.596H1697.06L1724.89 -231Z" fill="#FEC526"/>
<path d="M1633.12 -128.192H1615.07L1587.24 -76.788H1569.24L1541.41 -25.3874H1559.46L1587.3 -76.788H1605.29L1633.12 -128.192H1651.18L1679.01 -179.596H1660.95L1633.12 -128.192Z" fill="#FEC526"/>
<path d="M1761 -231H1742.95L1715.11 -179.596H1733.17L1761 -231Z" fill="#FEC526"/>
<path d="M1659.45 -76.788H1641.45L1613.63 -25.3874H1631.68L1659.51 -76.788H1677.51L1705.34 -128.192H1687.28L1659.45 -76.788Z" fill="#FEC526"/>
<path d="M1669.23 -128.192H1651.18L1623.34 -76.788H1605.35L1577.52 -25.3874H1595.57L1623.4 -76.788H1641.4L1669.23 -128.192H1687.28L1715.11 -179.596H1697.06L1669.23 -128.192Z" fill="#FEC526"/>
<path d="M1705.34 -128.192H1723.39L1751.22 -179.596H1733.17L1705.34 -128.192Z" fill="#FEC526"/>
<path d="M1334.55 -76.788H1352.54L1380.38 -128.192H1398.43L1426.26 -179.596H1408.21L1380.37 -128.192H1362.32L1334.49 -76.788H1316.49L1288.66 -25.3874H1306.72L1334.55 -76.788Z" fill="#FEC526"/>
<path d="M1324.77 -25.3874H1306.72L1278.88 26.0166H1260.83L1233 77.4206H1251.05L1278.89 26.0166H1296.94L1324.77 -25.3874Z" fill="#FEC526"/>
<path d="M1360.88 -25.3874H1342.82L1314.99 26.0166H1296.94L1269.11 77.4206H1287.16L1314.99 26.0166H1333.04L1360.88 -25.3874Z" fill="#FEC526"/>
<path d="M1442.87 -76.788H1460.87L1488.69 -128.192H1470.64L1442.81 -76.788H1424.81L1396.98 -25.3874H1415.04L1442.87 -76.788Z" fill="#FEC526"/>
<path d="M1351.1 26.0166H1333.04L1305.21 77.4206H1323.26L1351.1 26.0166H1369.15L1396.98 -25.3874H1378.93L1351.1 26.0166Z" fill="#FEC526"/>
<path d="M1433.09 -25.3874H1415.04L1387.21 26.0166H1369.15L1341.32 77.4206H1359.37L1387.21 26.0166H1405.26L1433.09 -25.3874Z" fill="#FEC526"/>
<path d="M1413.54 77.4206H1431.59L1459.42 26.0166H1441.37L1413.54 77.4206Z" fill="#FEC526"/>
<path d="M1469.2 -25.3874H1451.14L1423.31 26.0166H1405.26L1377.43 77.4206H1395.48L1423.31 26.0166H1441.37L1469.2 -25.3874Z" fill="#FEC526"/>
<path d="M1541.41 -25.3874H1523.36L1495.52 26.0166H1477.47L1505.3 -25.3874H1523.36L1551.19 -76.788H1569.18L1597.02 -128.192H1615.07L1642.9 -179.596H1624.85L1597.01 -128.192H1578.96L1551.13 -76.788H1533.13L1505.3 -25.3874H1487.25L1459.42 26.0166H1477.47L1449.64 77.4206H1467.69L1495.53 26.0166H1513.58L1541.41 -25.3874Z" fill="#FEC526"/>
<path d="M1577.52 -25.3874H1559.46L1531.63 26.0166H1513.58L1485.75 77.4206H1503.8L1531.63 26.0166H1549.68L1577.52 -25.3874Z" fill="#FEC526"/>
<path d="M1567.74 26.0166H1549.68L1521.85 77.4206H1539.9L1567.74 26.0166H1585.79L1613.63 -25.3874H1595.57L1567.74 26.0166Z" fill="#FEC526"/>
<path d="M1695.62 -76.788H1677.56L1649.73 -25.3874H1667.78L1695.62 -76.788Z" fill="#FEC526"/>
<path d="M1603.85 26.0166H1585.79L1557.96 77.4206H1576.01L1603.85 26.0166H1621.9L1649.73 -25.3874H1631.68L1603.85 26.0166Z" fill="#FEC526"/>
<path d="M1731.72 -76.788H1713.67L1685.84 -25.3874H1703.89L1731.72 -76.788Z" fill="#FEC526"/>
<path d="M1630.18 77.4206H1648.23L1676.06 26.0166H1658.01L1630.18 77.4206Z" fill="#FEC526"/>
<path d="M1639.95 26.0166H1621.9L1594.07 77.4206H1612.12L1639.95 26.0166H1658.01L1685.84 -25.3874H1667.78L1639.95 26.0166Z" fill="#FEC526"/>
<path d="M1676.06 26.0166H1694.11L1721.94 -25.3874H1703.89L1676.06 26.0166Z" fill="#FEC526"/>
</mask>
<g mask="url(#mask5_979_3165)">
<rect x="1261" width="357" height="66" fill="#04003D"/>
</g>
</g>
<g clip-path="url(#clip6_979_3165)">
<mask id="mask6_979_3165" style="mask-type:alpha" maskUnits="userSpaceOnUse" x="1558" y="-231" width="528" height="309">
<path d="M1688.82 -231H1670.77L1642.94 -179.596H1660.99L1688.82 -231Z" fill="#FEC526"/>
<path d="M1724.93 -231H1706.88L1679.05 -179.596H1697.1L1724.93 -231Z" fill="#FEC526"/>
<path d="M1679.05 -179.596H1660.99L1633.16 -128.192H1615.11L1587.28 -76.788H1605.33L1633.16 -128.192H1651.22L1679.05 -179.596Z" fill="#FEC526"/>
<path d="M1761.04 -231H1742.99L1715.15 -179.596H1733.21L1761.04 -231Z" fill="#FEC526"/>
<path d="M1715.15 -179.596H1697.1L1669.27 -128.192H1651.22L1623.38 -76.788H1641.44L1669.27 -128.192H1687.32L1715.15 -179.596Z" fill="#FEC526"/>
<path d="M1797.15 -231H1779.09L1751.26 -179.596H1769.31L1797.15 -231Z" fill="#FEC526"/>
<path d="M1833.25 -231H1815.2L1787.37 -179.596H1805.42L1833.25 -231Z" fill="#FEC526"/>
<path d="M1741.48 -128.192H1723.43L1695.6 -76.788H1677.6L1649.77 -25.3874H1667.82L1695.66 -76.788H1713.65L1741.48 -128.192H1759.54L1787.37 -179.596H1769.31L1741.48 -128.192Z" fill="#FEC526"/>
<path d="M1869.36 -231H1851.31L1823.47 -179.596H1841.53L1869.36 -231Z" fill="#FEC526"/>
<path d="M1777.59 -128.192H1759.54L1731.7 -76.788H1713.71L1685.88 -25.3874H1703.93L1731.76 -76.788H1749.76L1777.59 -128.192H1795.64L1823.47 -179.596H1805.42L1777.59 -128.192Z" fill="#FEC526"/>
<path d="M1813.69 -128.192H1831.75L1803.92 -76.788H1785.92L1758.09 -25.3874H1776.14L1803.98 -76.788H1821.97L1849.8 -128.192H1867.86L1895.69 -179.596H1877.63L1849.8 -128.192H1831.75L1859.58 -179.596H1877.63L1905.46 -231H1887.41L1859.58 -179.596H1841.53L1813.69 -128.192Z" fill="#FEC526"/>
<path d="M1941.57 -231H1923.52L1895.69 -179.596H1913.74L1941.57 -231Z" fill="#FEC526"/>
<path d="M1977.68 -231H1959.63L1931.79 -179.596H1949.85L1977.68 -231Z" fill="#FEC526"/>
<path d="M1885.91 -128.192H1867.86L1840.02 -76.788H1822.03L1794.2 -25.3874H1812.25L1840.08 -76.788H1858.08L1885.91 -128.192H1903.96L1931.79 -179.596H1913.74L1885.91 -128.192Z" fill="#FEC526"/>
<path d="M2013.79 -231H1995.73L1967.9 -179.596H1985.95L2013.79 -231Z" fill="#FEC526"/>
<path d="M2049.89 -231H2031.84L2004.01 -179.596H2022.06L2049.89 -231Z" fill="#FEC526"/>
<path d="M1958.12 -128.192H1940.07L1912.24 -76.788H1894.24L1866.41 -25.3874H1884.46L1912.3 -76.788H1930.29L1958.12 -128.192H1976.18L2004.01 -179.596H1985.95L1958.12 -128.192Z" fill="#FEC526"/>
<path d="M2086 -231H2067.95L2040.11 -179.596H2058.17L2086 -231Z" fill="#FEC526"/>
<path d="M1984.45 -76.788H1966.45L1938.63 -25.3874H1956.68L1984.51 -76.788H2002.51L2030.34 -128.192H2012.28L1984.45 -76.788Z" fill="#FEC526"/>
<path d="M1994.23 -128.192H1976.18L1948.34 -76.788H1930.35L1902.52 -25.3874H1920.57L1948.4 -76.788H1966.4L1994.23 -128.192H2012.28L2040.11 -179.596H2022.06L1994.23 -128.192Z" fill="#FEC526"/>
<path d="M2030.34 -128.192H2048.39L2076.22 -179.596H2058.17L2030.34 -128.192Z" fill="#FEC526"/>
<path d="M1659.55 -76.788H1677.54L1705.38 -128.192H1723.43L1751.26 -179.596H1733.21L1705.37 -128.192H1687.32L1659.49 -76.788H1641.49L1613.66 -25.3874H1631.72L1659.55 -76.788Z" fill="#FEC526"/>
<path d="M1649.77 -25.3874H1631.72L1603.88 26.0166H1585.83L1558 77.4206H1576.05L1603.89 26.0166H1621.94L1649.77 -25.3874Z" fill="#FEC526"/>
<path d="M1685.88 -25.3874H1667.82L1639.99 26.0166H1621.94L1594.11 77.4206H1612.16L1639.99 26.0166H1658.04L1685.88 -25.3874Z" fill="#FEC526"/>
<path d="M1767.87 -76.788H1785.87L1813.69 -128.192H1795.64L1767.81 -76.788H1749.81L1721.98 -25.3874H1740.04L1767.87 -76.788Z" fill="#FEC526"/>
<path d="M1676.1 26.0166H1658.04L1630.21 77.4206H1648.26L1676.1 26.0166H1694.15L1721.98 -25.3874H1703.93L1676.1 26.0166Z" fill="#FEC526"/>
<path d="M1758.09 -25.3874H1740.04L1712.21 26.0166H1694.15L1666.32 77.4206H1684.37L1712.21 26.0166H1730.26L1758.09 -25.3874Z" fill="#FEC526"/>
<path d="M1738.54 77.4206H1756.59L1784.42 26.0166H1766.37L1738.54 77.4206Z" fill="#FEC526"/>
<path d="M1794.2 -25.3874H1776.14L1748.31 26.0166H1730.26L1702.43 77.4206H1720.48L1748.31 26.0166H1766.37L1794.2 -25.3874Z" fill="#FEC526"/>
<path d="M1866.41 -25.3874H1848.36L1820.52 26.0166H1802.47L1830.3 -25.3874H1848.36L1876.19 -76.788H1894.18L1922.02 -128.192H1940.07L1967.9 -179.596H1949.85L1922.01 -128.192H1903.96L1876.13 -76.788H1858.13L1830.3 -25.3874H1812.25L1784.42 26.0166H1802.47L1774.64 77.4206H1792.69L1820.53 26.0166H1838.58L1866.41 -25.3874Z" fill="#FEC526"/>
<path d="M1902.52 -25.3874H1884.46L1856.63 26.0166H1838.58L1810.75 77.4206H1828.8L1856.63 26.0166H1874.68L1902.52 -25.3874Z" fill="#FEC526"/>
<path d="M1892.74 26.0166H1874.68L1846.85 77.4206H1864.9L1892.74 26.0166H1910.79L1938.63 -25.3874H1920.57L1892.74 26.0166Z" fill="#FEC526"/>
<path d="M2020.62 -76.788H2002.56L1974.73 -25.3874H1992.78L2020.62 -76.788Z" fill="#FEC526"/>
<path d="M1928.85 26.0166H1910.79L1882.96 77.4206H1901.01L1928.85 26.0166H1946.9L1974.73 -25.3874H1956.68L1928.85 26.0166Z" fill="#FEC526"/>
<path d="M2056.72 -76.788H2038.67L2010.84 -25.3874H2028.89L2056.72 -76.788Z" fill="#FEC526"/>
<path d="M1955.18 77.4206H1973.23L2001.06 26.0166H1983.01L1955.18 77.4206Z" fill="#FEC526"/>
<path d="M1964.95 26.0166H1946.9L1919.07 77.4206H1937.12L1964.95 26.0166H1983.01L2010.84 -25.3874H1992.78L1964.95 26.0166Z" fill="#FEC526"/>
<path d="M2001.06 26.0166H2019.11L2046.94 -25.3874H2028.89L2001.06 26.0166Z" fill="#FEC526"/>
</mask>
<g mask="url(#mask6_979_3165)">
<rect x="1621" width="357" height="66" fill="#04003D"/>
<rect x="1588" width="390" height="66" fill="#04003D"/>
</g>
</g>
<g clip-path="url(#clip7_979_3165)">
<mask id="mask7_979_3165" style="mask-type:alpha" maskUnits="userSpaceOnUse" x="1919" y="-231" width="528" height="309">
<path d="M2049.82 -231H2031.77L2003.94 -179.596H2021.99L2049.82 -231Z" fill="#FEC526"/>
<path d="M2085.93 -231H2067.88L2040.05 -179.596H2058.1L2085.93 -231Z" fill="#FEC526"/>
<path d="M2040.05 -179.596H2021.99L1994.16 -128.192H1976.11L1948.28 -76.788H1966.33L1994.16 -128.192H2012.22L2040.05 -179.596Z" fill="#FEC526"/>
<path d="M2122.04 -231H2103.99L2076.15 -179.596H2094.21L2122.04 -231Z" fill="#FEC526"/>
<path d="M2076.15 -179.596H2058.1L2030.27 -128.192H2012.22L1984.38 -76.788H2002.44L2030.27 -128.192H2048.32L2076.15 -179.596Z" fill="#FEC526"/>
<path d="M2158.15 -231H2140.09L2112.26 -179.596H2130.31L2158.15 -231Z" fill="#FEC526"/>
<path d="M2194.25 -231H2176.2L2148.37 -179.596H2166.42L2194.25 -231Z" fill="#FEC526"/>
<path d="M2102.48 -128.192H2084.43L2056.6 -76.788H2038.6L2010.77 -25.3874H2028.82L2056.66 -76.788H2074.65L2102.48 -128.192H2120.54L2148.37 -179.596H2130.31L2102.48 -128.192Z" fill="#FEC526"/>
<path d="M2230.36 -231H2212.31L2184.47 -179.596H2202.53L2230.36 -231Z" fill="#FEC526"/>
<path d="M2138.59 -128.192H2120.54L2092.7 -76.788H2074.71L2046.88 -25.3874H2064.93L2092.76 -76.788H2110.76L2138.59 -128.192H2156.64L2184.47 -179.596H2166.42L2138.59 -128.192Z" fill="#FEC526"/>
<path d="M2174.69 -128.192H2192.75L2164.92 -76.788H2146.92L2119.09 -25.3874H2137.14L2164.98 -76.788H2182.97L2210.8 -128.192H2228.86L2256.69 -179.596H2238.63L2210.8 -128.192H2192.75L2220.58 -179.596H2238.63L2266.46 -231H2248.41L2220.58 -179.596H2202.53L2174.69 -128.192Z" fill="#FEC526"/>
<path d="M2302.57 -231H2284.52L2256.69 -179.596H2274.74L2302.57 -231Z" fill="#FEC526"/>
<path d="M2338.68 -231H2320.63L2292.79 -179.596H2310.85L2338.68 -231Z" fill="#FEC526"/>
<path d="M2246.91 -128.192H2228.86L2201.02 -76.788H2183.03L2155.2 -25.3874H2173.25L2201.08 -76.788H2219.08L2246.91 -128.192H2264.96L2292.79 -179.596H2274.74L2246.91 -128.192Z" fill="#FEC526"/>
<path d="M2374.79 -231H2356.73L2328.9 -179.596H2346.95L2374.79 -231Z" fill="#FEC526"/>
<path d="M2410.89 -231H2392.84L2365.01 -179.596H2383.06L2410.89 -231Z" fill="#FEC526"/>
<path d="M2319.12 -128.192H2301.07L2273.24 -76.788H2255.24L2227.41 -25.3874H2245.46L2273.3 -76.788H2291.29L2319.12 -128.192H2337.18L2365.01 -179.596H2346.95L2319.12 -128.192Z" fill="#FEC526"/>
<path d="M2447 -231H2428.95L2401.11 -179.596H2419.17L2447 -231Z" fill="#FEC526"/>
<path d="M2345.45 -76.788H2327.45L2299.63 -25.3874H2317.68L2345.51 -76.788H2363.51L2391.34 -128.192H2373.28L2345.45 -76.788Z" fill="#FEC526"/>
<path d="M2355.23 -128.192H2337.18L2309.34 -76.788H2291.35L2263.52 -25.3874H2281.57L2309.4 -76.788H2327.4L2355.23 -128.192H2373.28L2401.11 -179.596H2383.06L2355.23 -128.192Z" fill="#FEC526"/>
<path d="M2391.34 -128.192H2409.39L2437.22 -179.596H2419.17L2391.34 -128.192Z" fill="#FEC526"/>
<path d="M2020.55 -76.788H2038.54L2066.38 -128.192H2084.43L2112.26 -179.596H2094.21L2066.37 -128.192H2048.32L2020.49 -76.788H2002.49L1974.66 -25.3874H1992.72L2020.55 -76.788Z" fill="#FEC526"/>
<path d="M2010.77 -25.3874H1992.72L1964.88 26.0166H1946.83L1919 77.4206H1937.05L1964.89 26.0166H1982.94L2010.77 -25.3874Z" fill="#FEC526"/>
<path d="M2046.88 -25.3874H2028.82L2000.99 26.0166H1982.94L1955.11 77.4206H1973.16L2000.99 26.0166H2019.04L2046.88 -25.3874Z" fill="#FEC526"/>
<path d="M2128.87 -76.788H2146.87L2174.69 -128.192H2156.64L2128.81 -76.788H2110.81L2082.98 -25.3874H2101.04L2128.87 -76.788Z" fill="#FEC526"/>
<path d="M2037.1 26.0166H2019.04L1991.21 77.4206H2009.26L2037.1 26.0166H2055.15L2082.98 -25.3874H2064.93L2037.1 26.0166Z" fill="#FEC526"/>
<path d="M2119.09 -25.3874H2101.04L2073.21 26.0166H2055.15L2027.32 77.4206H2045.37L2073.21 26.0166H2091.26L2119.09 -25.3874Z" fill="#FEC526"/>
<path d="M2099.54 77.4206H2117.59L2145.42 26.0166H2127.37L2099.54 77.4206Z" fill="#FEC526"/>
<path d="M2155.2 -25.3874H2137.14L2109.31 26.0166H2091.26L2063.43 77.4206H2081.48L2109.31 26.0166H2127.37L2155.2 -25.3874Z" fill="#FEC526"/>
<path d="M2227.41 -25.3874H2209.36L2181.52 26.0166H2163.47L2191.3 -25.3874H2209.36L2237.19 -76.788H2255.18L2283.02 -128.192H2301.07L2328.9 -179.596H2310.85L2283.01 -128.192H2264.96L2237.13 -76.788H2219.13L2191.3 -25.3874H2173.25L2145.42 26.0166H2163.47L2135.64 77.4206H2153.69L2181.53 26.0166H2199.58L2227.41 -25.3874Z" fill="#FEC526"/>
<path d="M2263.52 -25.3874H2245.46L2217.63 26.0166H2199.58L2171.75 77.4206H2189.8L2217.63 26.0166H2235.68L2263.52 -25.3874Z" fill="#FEC526"/>
<path d="M2253.74 26.0166H2235.68L2207.85 77.4206H2225.9L2253.74 26.0166H2271.79L2299.63 -25.3874H2281.57L2253.74 26.0166Z" fill="#FEC526"/>
<path d="M2381.62 -76.788H2363.56L2335.73 -25.3874H2353.78L2381.62 -76.788Z" fill="#FEC526"/>
<path d="M2289.85 26.0166H2271.79L2243.96 77.4206H2262.01L2289.85 26.0166H2307.9L2335.73 -25.3874H2317.68L2289.85 26.0166Z" fill="#FEC526"/>
<path d="M2417.72 -76.788H2399.67L2371.84 -25.3874H2389.89L2417.72 -76.788Z" fill="#FEC526"/>
<path d="M2316.18 77.4206H2334.23L2362.06 26.0166H2344.01L2316.18 77.4206Z" fill="#FEC526"/>
<path d="M2325.95 26.0166H2307.9L2280.07 77.4206H2298.12L2325.95 26.0166H2344.01L2371.84 -25.3874H2353.78L2325.95 26.0166Z" fill="#FEC526"/>
<path d="M2362.06 26.0166H2380.11L2407.94 -25.3874H2389.89L2362.06 26.0166Z" fill="#FEC526"/>
</mask>
<g mask="url(#mask7_979_3165)">
<rect x="1947" width="357" height="66" fill="#04003D"/>
</g>
</g>
<defs>
<clipPath id="clip0_979_3165">
<rect width="390" height="66" fill="white"/>
</clipPath>
<clipPath id="clip1_979_3165">
<rect width="390" height="66" fill="white" transform="translate(326)"/>
</clipPath>
<clipPath id="clip2_979_3165">
<rect width="390" height="66" fill="white" transform="translate(686)"/>
</clipPath>
<clipPath id="clip3_979_3165">
<rect width="390" height="66" fill="white" transform="translate(1012)"/>
</clipPath>
<clipPath id="clip4_979_3165">
<rect width="390" height="66" fill="white" transform="translate(902)"/>
</clipPath>
<clipPath id="clip5_979_3165">
<rect width="390" height="66" fill="white" transform="translate(1228)"/>
</clipPath>
<clipPath id="clip6_979_3165">
<rect width="390" height="66" fill="white" transform="translate(1588)"/>
</clipPath>
<clipPath id="clip7_979_3165">
<rect width="390" height="66" fill="white" transform="translate(1914)"/>
</clipPath>
</defs>
</svg>
